<svg xmlns="http://www.w3.org/2000/svg" viewBox="0 0 32 32">
  <path fill="#326CE5" d="M15.9.5c-.5 0-1 .2-1.4.5L3.4 8.3c-.8.5-1.3 1.4-1.4 2.3l-.5 13.8c0 .9.4 1.8 1.2 2.4l10.6 8c.8.6 1.9.6 2.8 0l10.6-8c.8-.6 1.2-1.5 1.2-2.4l-.5-13.8c-.1-.9-.6-1.8-1.4-2.3L14.9 1c-.4-.3-.9-.5-1-.5z"/>
  <path fill="#fff" d="M15.9 4.9c-.2 0-.4.1-.5.3l-7.8 5.5c-.3.2-.4.5-.4.8v7.5c0 .3.2.6.4.8l6.3 4.5c.2.2.5.2.7.2h2.8c.2 0 .5-.1.7-.2l6.3-4.5c.3-.2.4-.5.4-.8V11.5c0-.3-.2-.6-.4-.8l-7.8-5.5c-.2-.2-.4-.3-.7-.3zm0 2.7l5.8 4.1v5.6l-4.7 3.4h-2.2l-4.7-3.4v-5.6l5.8-4.1z"/>
  <circle fill="#fff" cx="16" cy="15.5" r="2.5"/>
</svg>
